<mxfile host="Electron" agent="Mozilla/5.0 (Windows NT 10.0; Win64; x64) AppleWebKit/537.36 (KHTML, like Gecko) draw.io/25.0.2 Chrome/128.0.6613.186 Electron/32.2.5 Safari/537.36" version="25.0.2">
  <diagram name="Page-1" id="6s1i4BWispKoLz5VoGgh">
    <mxGraphModel dx="1918" dy="1058" grid="1" gridSize="10" guides="1" tooltips="1" connect="1" arrows="1" fold="1" page="1" pageScale="1" pageWidth="1169" pageHeight="827" math="0" shadow="0">
      <root>
        <mxCell id="0" />
        <mxCell id="1" parent="0" />
        <mxCell id="ZN-PKVyY6lMMPNNWL_Rx-45" style="edgeStyle=orthogonalEdgeStyle;rounded=0;orthogonalLoop=1;jettySize=auto;html=1;exitX=0.145;exitY=0.855;exitDx=0;exitDy=0;exitPerimeter=0;" parent="1" source="Sg1S7YqErnmROwrVEkFE-31" target="ZN-PKVyY6lMMPNNWL_Rx-32" edge="1">
          <mxGeometry relative="1" as="geometry">
            <Array as="points">
              <mxPoint x="673" y="836" />
              <mxPoint x="673" y="898" />
              <mxPoint x="859" y="898" />
            </Array>
          </mxGeometry>
        </mxCell>
        <mxCell id="M_lbkzxIUz3xgwYN4G2F-1" value="&lt;div&gt;Overall explanation: This graph shows two layers. one is the network layer and another one shows service layer. Networking layer is the graphs inside VPc and service layer is the graph above that .&amp;nbsp; Although the service layer is drawn outside the VPc, all of the services are applying in the VPC LAB too. these two layers are connected to one another by LOAD BALANCER, which also has the responsibility of&amp;nbsp; the distribution of the loads.&lt;/div&gt;&lt;div&gt;&lt;br&gt;&lt;/div&gt;&lt;div&gt;1) Amazon ECR The latest Docker images generated via the build process are stored in Amazon ECR and pulled for&lt;br&gt;deployment in Fargate based on the developer changes to the source code (see step 13) in Fargate,&lt;br&gt;and they run across multiple Availability Zones for high availability (HA) with the latest version&lt;br&gt;&lt;/div&gt;&lt;div&gt;&lt;br&gt;&lt;/div&gt;&lt;div&gt;&lt;span style=&quot;background-color: initial;&quot;&gt;2)AWS CodeCommit is a fully managed service that acts as a repository for storing application code whenever&lt;/span&gt;&lt;br&gt;&lt;/div&gt;the developer modifies or commits the code.&lt;div&gt;&lt;br&gt;&lt;/div&gt;&lt;div&gt;&lt;span style=&quot;background-color: initial;&quot;&gt;&amp;nbsp;3)AWS CodePipeline is used to create an end-to-end pipeline that fetches the application code from&lt;/span&gt;&lt;br&gt;&lt;/div&gt;CodeCommit, builds and tests using CodeBuild, and finally deploys using CodeDeploy from&lt;br&gt;Amazon Elastic Container Registry (Amazon ECR) to the Fargate serverless platform for handling&lt;br&gt;&lt;div&gt;&lt;span style=&quot;background-color: initial;&quot;&gt;user traffic.&lt;/span&gt;&amp;nbsp;&lt;/div&gt;&lt;div&gt;&lt;br&gt;&lt;/div&gt;4)AWS CodeDeploy is a fully-managed deployment service that automates software deployments to&lt;br&gt;AWS Fargate. The deployments contain the code or application (associated to new features to be&lt;br&gt;&lt;div&gt;&lt;span style=&quot;background-color: initial;&quot;&gt;deployed based on developer changes) running CodeDeploy agents.&lt;/span&gt;&lt;/div&gt;&lt;div&gt;&lt;span style=&quot;background-color: initial;&quot;&gt;&lt;br&gt;&lt;/span&gt;&lt;/div&gt;&lt;div&gt;&lt;br&gt;&lt;/div&gt;&lt;div&gt;&lt;div&gt;&amp;nbsp;5)Amazon ECS on AWS Fargate connects to Amazon ECR via Amazon VPC by configuring ECR to use&lt;br&gt;an interface Amazon VPC endpoint. Amazon VPC interface endpoints enable private access to ECR&lt;br&gt;APIs through private IP addresses. AWS PrivateLink restricts all network traffic between the&lt;br&gt;&lt;/div&gt;&lt;/div&gt;&lt;div&gt;&lt;span style=&quot;background-color: initial;&quot;&gt;Amazon VPC and ECR using the Amazon network.&lt;/span&gt;&lt;span style=&quot;background-color: initial;&quot;&gt;&amp;nbsp;&lt;/span&gt;&lt;/div&gt;&lt;div&gt;&lt;br&gt;&lt;/div&gt;&lt;div&gt;&lt;span style=&quot;background-color: initial;&quot;&gt;6)NAT Gateway&lt;/span&gt;&amp;nbsp;&lt;br&gt;&lt;div&gt;&lt;br&gt;&lt;div&gt;&lt;br&gt;&lt;/div&gt;&lt;div&gt;&amp;nbsp;7)APPLICATION Load Balancer (ALB) in the seven layer of the networking. if the path ends in /admin/*&amp;nbsp; traffic goes into the employee microservice otherwise the traffic goes into customer microservices. Also, it applies the strategy of blue/green(&amp;nbsp;&amp;nbsp;&lt;/div&gt;&lt;div&gt;&lt;br&gt;&lt;/div&gt;&lt;div&gt;8)Security group, controls which traffics are allowed to enter each subnets.&lt;/div&gt;&lt;/div&gt;&lt;div&gt;&lt;br&gt;&lt;/div&gt;&lt;div&gt;9)RDs, one relational database is runng in two private subnets.&lt;/div&gt;&lt;div&gt;&lt;br&gt;&lt;/div&gt;&lt;div&gt;10) containers are created by microservices that are runing inside Amazon ECS. When customer service is scaled up, 3 containers for customer will be created (as it is needed) .&lt;/div&gt;&lt;div&gt;11)IAM ROLE each user has its own access to the services by the policy that is defined in IAM ROLE&lt;/div&gt;&lt;div&gt;&lt;br&gt;&lt;/div&gt;&lt;/div&gt;&lt;div&gt;12)cloud watch logs. it keeps the record of logs in the whole process&amp;nbsp;&lt;/div&gt;&lt;div&gt;13) cloud 9 has access to all services in the same VPC&lt;/div&gt;" style="text;whiteSpace=wrap;html=1;" parent="1" vertex="1">
          <mxGeometry x="81" y="890" width="560" height="810" as="geometry" />
        </mxCell>
        <mxCell id="ZN-PKVyY6lMMPNNWL_Rx-32" value="" style="sketch=0;outlineConnect=0;fontColor=#232F3E;gradientColor=none;fillColor=#DD344C;strokeColor=none;dashed=0;verticalLabelPosition=bottom;verticalAlign=top;align=center;html=1;fontSize=12;fontStyle=0;aspect=fixed;pointerEvents=1;shape=mxgraph.aws4.role;" parent="1" vertex="1">
          <mxGeometry x="820" y="926" width="78" height="44" as="geometry" />
        </mxCell>
        <mxCell id="ZN-PKVyY6lMMPNNWL_Rx-33" value="" style="ellipse;whiteSpace=wrap;html=1;" parent="1" vertex="1">
          <mxGeometry x="850" y="970" width="44" height="30" as="geometry" />
        </mxCell>
        <mxCell id="ZN-PKVyY6lMMPNNWL_Rx-34" value="" style="endArrow=none;html=1;rounded=0;" parent="1" edge="1">
          <mxGeometry width="50" height="50" relative="1" as="geometry">
            <mxPoint x="840" y="1120" as="sourcePoint" />
            <mxPoint x="910" y="1120" as="targetPoint" />
            <Array as="points">
              <mxPoint x="870" y="1060" />
            </Array>
          </mxGeometry>
        </mxCell>
        <mxCell id="ZN-PKVyY6lMMPNNWL_Rx-35" value="" style="endArrow=none;html=1;rounded=0;" parent="1" edge="1">
          <mxGeometry width="50" height="50" relative="1" as="geometry">
            <mxPoint x="840" y="1040" as="sourcePoint" />
            <mxPoint x="910" y="1030" as="targetPoint" />
            <Array as="points">
              <mxPoint x="870" y="1010" />
            </Array>
          </mxGeometry>
        </mxCell>
        <mxCell id="ZN-PKVyY6lMMPNNWL_Rx-36" value="Text" style="edgeLabel;html=1;align=center;verticalAlign=middle;resizable=0;points=[];" parent="ZN-PKVyY6lMMPNNWL_Rx-35" vertex="1" connectable="0">
          <mxGeometry x="-0.6127" y="-3" relative="1" as="geometry">
            <mxPoint y="1" as="offset" />
          </mxGeometry>
        </mxCell>
        <mxCell id="ZN-PKVyY6lMMPNNWL_Rx-37" value="" style="endArrow=none;html=1;rounded=0;entryX=0.5;entryY=1;entryDx=0;entryDy=0;" parent="1" target="ZN-PKVyY6lMMPNNWL_Rx-33" edge="1">
          <mxGeometry width="50" height="50" relative="1" as="geometry">
            <mxPoint x="872" y="1060" as="sourcePoint" />
            <mxPoint x="500" y="820" as="targetPoint" />
          </mxGeometry>
        </mxCell>
        <mxCell id="ZN-PKVyY6lMMPNNWL_Rx-40" value="IAM ROLE" style="text;strokeColor=none;align=center;fillColor=none;html=1;verticalAlign=middle;whiteSpace=wrap;rounded=0;" parent="1" vertex="1">
          <mxGeometry x="760" y="990" width="90" height="40" as="geometry" />
        </mxCell>
        <mxCell id="ZN-PKVyY6lMMPNNWL_Rx-46" value="11" style="ellipse;whiteSpace=wrap;html=1;aspect=fixed;" parent="1" vertex="1">
          <mxGeometry x="910" y="930" width="40" height="40" as="geometry" />
        </mxCell>
        <mxCell id="Sg1S7YqErnmROwrVEkFE-1" value="REgion: N.virginia" style="points=[[0,0],[0.25,0],[0.5,0],[0.75,0],[1,0],[1,0.25],[1,0.5],[1,0.75],[1,1],[0.75,1],[0.5,1],[0.25,1],[0,1],[0,0.75],[0,0.5],[0,0.25]];outlineConnect=0;gradientColor=none;html=1;whiteSpace=wrap;fontSize=12;fontStyle=0;container=1;pointerEvents=0;collapsible=0;recursiveResize=0;shape=mxgraph.aws4.group;grIcon=mxgraph.aws4.group_region;strokeColor=#00A4A6;fillColor=none;verticalAlign=top;align=left;spacingLeft=30;fontColor=#147EBA;dashed=1;direction=south;" parent="1" vertex="1">
          <mxGeometry x="20" y="20" width="1140" height="850" as="geometry" />
        </mxCell>
        <mxCell id="Sg1S7YqErnmROwrVEkFE-54" value="Private Subnet1" style="sketch=0;outlineConnect=0;gradientColor=none;html=1;whiteSpace=wrap;fontSize=12;fontStyle=0;shape=mxgraph.aws4.group;grIcon=mxgraph.aws4.group_subnet;strokeColor=#879196;fillColor=none;verticalAlign=top;align=left;spacingLeft=30;fontColor=#879196;dashed=0;" parent="Sg1S7YqErnmROwrVEkFE-1" vertex="1">
          <mxGeometry x="230" y="630" width="270" height="160" as="geometry" />
        </mxCell>
        <mxCell id="ZN-PKVyY6lMMPNNWL_Rx-28" value="Security Group" style="fontStyle=0;verticalAlign=top;align=center;spacingTop=-2;fillColor=none;rounded=0;whiteSpace=wrap;html=1;strokeColor=#FF0000;strokeWidth=2;dashed=1;container=1;collapsible=0;expand=0;recursiveResize=0;" parent="Sg1S7YqErnmROwrVEkFE-1" vertex="1">
          <mxGeometry x="961" y="437" width="150" height="154" as="geometry" />
        </mxCell>
        <mxCell id="ZN-PKVyY6lMMPNNWL_Rx-30" value="Security Group" style="fontStyle=0;verticalAlign=top;align=center;spacingTop=-2;fillColor=none;rounded=0;whiteSpace=wrap;html=1;strokeColor=#FF0000;strokeWidth=2;dashed=1;container=1;collapsible=0;expand=0;recursiveResize=0;" parent="Sg1S7YqErnmROwrVEkFE-1" vertex="1">
          <mxGeometry x="313.75" y="434" width="160" height="150" as="geometry" />
        </mxCell>
        <mxCell id="ZN-PKVyY6lMMPNNWL_Rx-31" value="Security Group" style="fontStyle=0;verticalAlign=top;align=center;spacingTop=-2;fillColor=none;rounded=0;whiteSpace=wrap;html=1;strokeColor=#FF0000;strokeWidth=2;dashed=1;container=0;collapsible=0;expand=0;recursiveResize=0;" parent="Sg1S7YqErnmROwrVEkFE-1" vertex="1">
          <mxGeometry x="323.75" y="648.81" width="150" height="122.38" as="geometry" />
        </mxCell>
        <mxCell id="hbW6jGXOrDNodgh7C174-3" style="edgeStyle=orthogonalEdgeStyle;rounded=0;orthogonalLoop=1;jettySize=auto;html=1;" parent="Sg1S7YqErnmROwrVEkFE-1" source="Sg1S7YqErnmROwrVEkFE-2" target="iQOQacbCk2k0j-_D_CHo-12" edge="1">
          <mxGeometry relative="1" as="geometry" />
        </mxCell>
        <mxCell id="Sg1S7YqErnmROwrVEkFE-2" value="Amazon ECS" style="sketch=0;outlineConnect=0;fontColor=#232F3E;gradientColor=none;strokeColor=#ffffff;fillColor=#232F3E;dashed=0;verticalLabelPosition=middle;verticalAlign=bottom;align=center;html=1;whiteSpace=wrap;fontSize=10;fontStyle=1;spacing=3;shape=mxgraph.aws4.productIcon;prIcon=mxgraph.aws4.ecs;" parent="Sg1S7YqErnmROwrVEkFE-1" vertex="1">
          <mxGeometry x="612.68" y="136.5" width="80" height="100" as="geometry" />
        </mxCell>
        <mxCell id="Sg1S7YqErnmROwrVEkFE-3" style="edgeStyle=orthogonalEdgeStyle;rounded=0;orthogonalLoop=1;jettySize=auto;html=1;exitX=1;exitY=0.5;exitDx=0;exitDy=0;exitPerimeter=0;" parent="Sg1S7YqErnmROwrVEkFE-1" target="Sg1S7YqErnmROwrVEkFE-5" edge="1" source="Sg1S7YqErnmROwrVEkFE-6">
          <mxGeometry relative="1" as="geometry">
            <mxPoint x="336.5" y="186.4999999999999" as="sourcePoint" />
          </mxGeometry>
        </mxCell>
        <mxCell id="Sg1S7YqErnmROwrVEkFE-4" style="edgeStyle=orthogonalEdgeStyle;rounded=0;orthogonalLoop=1;jettySize=auto;html=1;" parent="Sg1S7YqErnmROwrVEkFE-1" source="Sg1S7YqErnmROwrVEkFE-5" target="Sg1S7YqErnmROwrVEkFE-2" edge="1">
          <mxGeometry relative="1" as="geometry" />
        </mxCell>
        <mxCell id="Sg1S7YqErnmROwrVEkFE-5" value="" style="outlineConnect=0;dashed=0;verticalLabelPosition=bottom;verticalAlign=top;align=center;html=1;shape=mxgraph.aws3.codedeploy;fillColor=#759C3E;gradientColor=none;" parent="Sg1S7YqErnmROwrVEkFE-1" vertex="1">
          <mxGeometry x="423.75" y="146" width="67.5" height="81" as="geometry" />
        </mxCell>
        <mxCell id="Sg1S7YqErnmROwrVEkFE-6" value="" style="outlineConnect=0;dashed=0;verticalLabelPosition=bottom;verticalAlign=top;align=center;html=1;shape=mxgraph.aws3.codepipeline;fillColor=#759C3E;gradientColor=none;" parent="Sg1S7YqErnmROwrVEkFE-1" vertex="1">
          <mxGeometry x="260" y="209" width="67.5" height="81" as="geometry" />
        </mxCell>
        <mxCell id="Sg1S7YqErnmROwrVEkFE-7" style="edgeStyle=orthogonalEdgeStyle;rounded=0;orthogonalLoop=1;jettySize=auto;html=1;" parent="Sg1S7YqErnmROwrVEkFE-1" source="Sg1S7YqErnmROwrVEkFE-8" target="Sg1S7YqErnmROwrVEkFE-10" edge="1">
          <mxGeometry relative="1" as="geometry" />
        </mxCell>
        <mxCell id="Sg1S7YqErnmROwrVEkFE-8" value="" style="outlineConnect=0;dashed=0;verticalLabelPosition=bottom;verticalAlign=top;align=center;html=1;shape=mxgraph.aws3.codecommit;fillColor=#759C3E;gradientColor=none;" parent="Sg1S7YqErnmROwrVEkFE-1" vertex="1">
          <mxGeometry x="73.5" y="246" width="76.5" height="54" as="geometry" />
        </mxCell>
        <mxCell id="Sg1S7YqErnmROwrVEkFE-9" style="edgeStyle=orthogonalEdgeStyle;rounded=0;orthogonalLoop=1;jettySize=auto;html=1;" parent="Sg1S7YqErnmROwrVEkFE-1" source="Sg1S7YqErnmROwrVEkFE-10" target="Sg1S7YqErnmROwrVEkFE-8" edge="1">
          <mxGeometry relative="1" as="geometry" />
        </mxCell>
        <mxCell id="Sg1S7YqErnmROwrVEkFE-10" value="Amazon ECR" style="sketch=0;outlineConnect=0;fontColor=#232F3E;gradientColor=none;strokeColor=#ffffff;fillColor=#232F3E;dashed=0;verticalLabelPosition=middle;verticalAlign=bottom;align=center;html=1;whiteSpace=wrap;fontSize=10;fontStyle=1;spacing=3;shape=mxgraph.aws4.productIcon;prIcon=mxgraph.aws4.ecr;" parent="Sg1S7YqErnmROwrVEkFE-1" vertex="1">
          <mxGeometry x="41.75" y="57" width="76.5" height="98.5" as="geometry" />
        </mxCell>
        <mxCell id="Sg1S7YqErnmROwrVEkFE-11" style="edgeStyle=orthogonalEdgeStyle;rounded=0;orthogonalLoop=1;jettySize=auto;html=1;entryX=0;entryY=0.5;entryDx=0;entryDy=0;entryPerimeter=0;exitX=0.5;exitY=1;exitDx=0;exitDy=0;exitPerimeter=0;" parent="Sg1S7YqErnmROwrVEkFE-1" source="Sg1S7YqErnmROwrVEkFE-8" target="Sg1S7YqErnmROwrVEkFE-6" edge="1">
          <mxGeometry relative="1" as="geometry">
            <mxPoint x="127" y="320" as="sourcePoint" />
          </mxGeometry>
        </mxCell>
        <mxCell id="Sg1S7YqErnmROwrVEkFE-12" value="code commit&lt;span style=&quot;color: rgba(0, 0, 0, 0); font-family: monospace; font-size: 0px; text-align: start; text-wrap-mode: nowrap;&quot;&gt;%3CmxGraphModel%3E%3Croot%3E%3CmxCell%20id%3D%220%22%2F%3E%3CmxCell%20id%3D%221%22%20parent%3D%220%22%2F%3E%3CmxCell%20id%3D%222%22%20value%3D%22%22%20style%3D%22sketch%3D0%3BoutlineConnect%3D0%3BfontColor%3D%23232F3E%3BgradientColor%3Dnone%3BfillColor%3D%23ED7100%3BstrokeColor%3Dnone%3Bdashed%3D0%3BverticalLabelPosition%3Dbottom%3BverticalAlign%3Dtop%3Balign%3Dcenter%3Bhtml%3D1%3BfontSize%3D12%3BfontStyle%3D0%3Baspect%3Dfixed%3BpointerEvents%3D1%3Bshape%3Dmxgraph.aws4.ec2_m1_mac_instance%3B%22%20vertex%3D%221%22%20parent%3D%221%22%3E%3CmxGeometry%20x%3D%22490%22%20y%3D%22360%22%20width%3D%2248%22%20height%3D%2248%22%20as%3D%22geometry%22%2F%3E%3C%2FmxCell%3E%3C%2Froot%3E%3C%2FmxGraphModel%3E&lt;/span&gt;" style="text;strokeColor=none;align=center;fillColor=none;html=1;verticalAlign=middle;whiteSpace=wrap;rounded=0;" parent="Sg1S7YqErnmROwrVEkFE-1" vertex="1">
          <mxGeometry x="58.25" y="344" width="60" height="30" as="geometry" />
        </mxCell>
        <mxCell id="Sg1S7YqErnmROwrVEkFE-13" value="code deploy" style="text;strokeColor=none;align=center;fillColor=none;html=1;verticalAlign=middle;whiteSpace=wrap;rounded=0;" parent="Sg1S7YqErnmROwrVEkFE-1" vertex="1">
          <mxGeometry x="413.75" y="236.5" width="60" height="30" as="geometry" />
        </mxCell>
        <mxCell id="Sg1S7YqErnmROwrVEkFE-14" value="code pipeline" style="text;strokeColor=none;align=center;fillColor=none;html=1;verticalAlign=middle;whiteSpace=wrap;rounded=0;" parent="Sg1S7YqErnmROwrVEkFE-1" vertex="1">
          <mxGeometry x="251.25" y="290" width="60" height="40" as="geometry" />
        </mxCell>
        <mxCell id="Sg1S7YqErnmROwrVEkFE-36" style="edgeStyle=orthogonalEdgeStyle;rounded=0;orthogonalLoop=1;jettySize=auto;html=1;" parent="Sg1S7YqErnmROwrVEkFE-1" target="Sg1S7YqErnmROwrVEkFE-28" edge="1">
          <mxGeometry relative="1" as="geometry">
            <mxPoint x="648.46" y="236.5" as="sourcePoint" />
            <mxPoint x="648.46" y="380" as="targetPoint" />
            <Array as="points">
              <mxPoint x="648" y="316" />
              <mxPoint x="650" y="316" />
            </Array>
          </mxGeometry>
        </mxCell>
        <mxCell id="M_lbkzxIUz3xgwYN4G2F-4" value="1" style="ellipse;whiteSpace=wrap;html=1;aspect=fixed;" parent="Sg1S7YqErnmROwrVEkFE-1" vertex="1">
          <mxGeometry x="60" y="27.5" width="40" height="40" as="geometry" />
        </mxCell>
        <mxCell id="M_lbkzxIUz3xgwYN4G2F-5" value="2" style="ellipse;whiteSpace=wrap;html=1;aspect=fixed;" parent="Sg1S7YqErnmROwrVEkFE-1" vertex="1">
          <mxGeometry x="10" y="330" width="40" height="40" as="geometry" />
        </mxCell>
        <mxCell id="M_lbkzxIUz3xgwYN4G2F-6" value="3" style="ellipse;whiteSpace=wrap;html=1;aspect=fixed;" parent="Sg1S7YqErnmROwrVEkFE-1" vertex="1">
          <mxGeometry x="283.75" y="166" width="40" height="40" as="geometry" />
        </mxCell>
        <mxCell id="M_lbkzxIUz3xgwYN4G2F-7" value="4" style="ellipse;whiteSpace=wrap;html=1;aspect=fixed;" parent="Sg1S7YqErnmROwrVEkFE-1" vertex="1">
          <mxGeometry x="423.75" y="106" width="40" height="40" as="geometry" />
        </mxCell>
        <mxCell id="M_lbkzxIUz3xgwYN4G2F-8" value="5" style="ellipse;whiteSpace=wrap;html=1;aspect=fixed;" parent="Sg1S7YqErnmROwrVEkFE-1" vertex="1">
          <mxGeometry x="632.68" y="106" width="40" height="40" as="geometry" />
        </mxCell>
        <mxCell id="ZN-PKVyY6lMMPNNWL_Rx-21" value="employee microservice admin" style="rounded=0;whiteSpace=wrap;html=1;" parent="Sg1S7YqErnmROwrVEkFE-1" vertex="1">
          <mxGeometry x="710" y="300" width="120" height="60" as="geometry" />
        </mxCell>
        <mxCell id="ZN-PKVyY6lMMPNNWL_Rx-22" value="customer microservice" style="rounded=0;whiteSpace=wrap;html=1;" parent="Sg1S7YqErnmROwrVEkFE-1" vertex="1">
          <mxGeometry x="710" y="221.5" width="120" height="60" as="geometry" />
        </mxCell>
        <mxCell id="iQOQacbCk2k0j-_D_CHo-1" value="AWS Cloud9" style="sketch=0;outlineConnect=0;fontColor=#232F3E;gradientColor=none;strokeColor=#ffffff;fillColor=#232F3E;dashed=0;verticalLabelPosition=middle;verticalAlign=bottom;align=center;html=1;whiteSpace=wrap;fontSize=10;fontStyle=1;spacing=3;shape=mxgraph.aws4.productIcon;prIcon=mxgraph.aws4.cloud9;" parent="Sg1S7YqErnmROwrVEkFE-1" vertex="1">
          <mxGeometry x="150" y="59" width="81.25" height="107" as="geometry" />
        </mxCell>
        <mxCell id="iQOQacbCk2k0j-_D_CHo-12" value="Amazon CloudWatch" style="sketch=0;outlineConnect=0;fontColor=#232F3E;gradientColor=none;strokeColor=#ffffff;fillColor=#232F3E;dashed=0;verticalLabelPosition=middle;verticalAlign=bottom;align=center;html=1;whiteSpace=wrap;fontSize=10;fontStyle=1;spacing=3;shape=mxgraph.aws4.productIcon;prIcon=mxgraph.aws4.cloudwatch;" parent="Sg1S7YqErnmROwrVEkFE-1" vertex="1">
          <mxGeometry x="890" y="128.12" width="71" height="116.75" as="geometry" />
        </mxCell>
        <mxCell id="hbW6jGXOrDNodgh7C174-6" value="13" style="ellipse;whiteSpace=wrap;html=1;aspect=fixed;" parent="Sg1S7YqErnmROwrVEkFE-1" vertex="1">
          <mxGeometry x="170.63" y="27.5" width="40" height="40" as="geometry" />
        </mxCell>
        <mxCell id="Sg1S7YqErnmROwrVEkFE-50" value="" style="group" parent="Sg1S7YqErnmROwrVEkFE-1" vertex="1" connectable="0">
          <mxGeometry x="624.5" y="471.14" width="105.5" height="189.86" as="geometry" />
        </mxCell>
        <mxCell id="Sg1S7YqErnmROwrVEkFE-28" value="" style="sketch=0;outlineConnect=0;fontColor=#232F3E;gradientColor=none;fillColor=#8C4FFF;strokeColor=none;dashed=0;verticalLabelPosition=bottom;verticalAlign=top;align=center;html=1;fontSize=12;fontStyle=0;aspect=fixed;pointerEvents=1;shape=mxgraph.aws4.application_load_balancer;" parent="Sg1S7YqErnmROwrVEkFE-50" vertex="1">
          <mxGeometry x="-3.442068965517251" y="-8.288333333333355" width="48.875" height="48.875" as="geometry" />
        </mxCell>
        <mxCell id="ZN-PKVyY6lMMPNNWL_Rx-19" value="&lt;div&gt;&lt;br&gt;&lt;/div&gt;" style="text;strokeColor=none;align=center;fillColor=none;html=1;verticalAlign=middle;whiteSpace=wrap;rounded=0;" parent="Sg1S7YqErnmROwrVEkFE-50" vertex="1">
          <mxGeometry x="-8.25" y="40.59000000000003" width="60" height="30" as="geometry" />
        </mxCell>
        <mxCell id="ZN-PKVyY6lMMPNNWL_Rx-20" value="&lt;div&gt;load balancer rules:&lt;/div&gt;8080:&amp;nbsp; employee tag1&lt;div&gt;customer tag1&lt;/div&gt;&lt;div&gt;(BLUE)&lt;/div&gt;&lt;div&gt;&lt;br&gt;&lt;/div&gt;&lt;div&gt;80:employee tag 2&lt;/div&gt;&lt;div&gt;customer tag2&lt;/div&gt;&lt;div&gt;(GREEN)&lt;/div&gt;" style="text;strokeColor=none;align=center;fillColor=none;html=1;verticalAlign=middle;whiteSpace=wrap;rounded=0;" parent="Sg1S7YqErnmROwrVEkFE-50" vertex="1">
          <mxGeometry x="-47.98000000000002" y="18.860000000000014" width="152.32" height="171" as="geometry" />
        </mxCell>
        <mxCell id="Sg1S7YqErnmROwrVEkFE-42" value="Public Subnet1" style="sketch=0;outlineConnect=0;gradientColor=none;html=1;whiteSpace=wrap;fontSize=12;fontStyle=0;shape=mxgraph.aws4.group;grIcon=mxgraph.aws4.group_subnet;strokeColor=#879196;fillColor=none;verticalAlign=top;align=left;spacingLeft=30;fontColor=#879196;dashed=0;" parent="Sg1S7YqErnmROwrVEkFE-1" vertex="1">
          <mxGeometry x="230" y="420" width="270" height="174" as="geometry" />
        </mxCell>
        <mxCell id="Sg1S7YqErnmROwrVEkFE-56" style="edgeStyle=orthogonalEdgeStyle;rounded=0;orthogonalLoop=1;jettySize=auto;html=1;" parent="Sg1S7YqErnmROwrVEkFE-1" source="Sg1S7YqErnmROwrVEkFE-53" target="Sg1S7YqErnmROwrVEkFE-42" edge="1">
          <mxGeometry relative="1" as="geometry" />
        </mxCell>
        <mxCell id="M_lbkzxIUz3xgwYN4G2F-12" value="7" style="ellipse;whiteSpace=wrap;html=1;aspect=fixed;" parent="Sg1S7YqErnmROwrVEkFE-1" vertex="1">
          <mxGeometry x="600" y="429.01" width="40" height="40" as="geometry" />
        </mxCell>
        <mxCell id="M_lbkzxIUz3xgwYN4G2F-13" value="8" style="ellipse;whiteSpace=wrap;html=1;aspect=fixed;" parent="Sg1S7YqErnmROwrVEkFE-1" vertex="1">
          <mxGeometry x="251.25" y="503" width="40" height="40" as="geometry" />
        </mxCell>
        <mxCell id="Nh4VloZTyhRn9MASb636-3" value="" style="outlineConnect=0;dashed=0;verticalLabelPosition=bottom;verticalAlign=top;align=center;html=1;shape=mxgraph.aws3.ec2_compute_container_2;fillColor=#F58534;gradientColor=none;" parent="Sg1S7YqErnmROwrVEkFE-1" vertex="1">
          <mxGeometry x="370" y="524" width="80" height="43.5" as="geometry" />
        </mxCell>
        <mxCell id="Nh4VloZTyhRn9MASb636-4" value="" style="outlineConnect=0;dashed=0;verticalLabelPosition=bottom;verticalAlign=top;align=center;html=1;shape=mxgraph.aws3.ec2_compute_container_2;fillColor=#F58534;gradientColor=none;" parent="Sg1S7YqErnmROwrVEkFE-1" vertex="1">
          <mxGeometry x="370" y="454.75" width="80" height="43.5" as="geometry" />
        </mxCell>
        <mxCell id="Nh4VloZTyhRn9MASb636-7" value="10" style="ellipse;whiteSpace=wrap;html=1;aspect=fixed;" parent="Sg1S7YqErnmROwrVEkFE-1" vertex="1">
          <mxGeometry x="380" y="454.75" width="41" height="41" as="geometry" />
        </mxCell>
        <mxCell id="BVOFNt_iV9Hys7kVZKEF-7" value="10.16.10.0/24" style="text;html=1;align=center;verticalAlign=middle;whiteSpace=wrap;rounded=0;" parent="Sg1S7YqErnmROwrVEkFE-1" vertex="1">
          <mxGeometry x="241.25" y="441.14" width="60" height="30" as="geometry" />
        </mxCell>
        <mxCell id="Sg1S7YqErnmROwrVEkFE-31" value="" style="outlineConnect=0;dashed=0;verticalLabelPosition=bottom;verticalAlign=top;align=center;html=1;shape=mxgraph.aws3.vpc_nat_gateway;fillColor=#F58534;gradientColor=none;" parent="Sg1S7YqErnmROwrVEkFE-1" vertex="1">
          <mxGeometry x="635.43" y="790" width="34.5" height="30" as="geometry" />
        </mxCell>
        <mxCell id="ZN-PKVyY6lMMPNNWL_Rx-41" style="edgeStyle=orthogonalEdgeStyle;rounded=0;orthogonalLoop=1;jettySize=auto;html=1;exitX=1;exitY=0.25;exitDx=0;exitDy=0;entryX=0.006;entryY=0.338;entryDx=0;entryDy=0;entryPerimeter=0;" parent="Sg1S7YqErnmROwrVEkFE-1" source="ZN-PKVyY6lMMPNNWL_Rx-20" target="ZN-PKVyY6lMMPNNWL_Rx-28" edge="1">
          <mxGeometry relative="1" as="geometry">
            <Array as="points">
              <mxPoint x="790" y="533" />
              <mxPoint x="790" y="489" />
            </Array>
          </mxGeometry>
        </mxCell>
        <mxCell id="ZN-PKVyY6lMMPNNWL_Rx-42" style="edgeStyle=orthogonalEdgeStyle;rounded=0;orthogonalLoop=1;jettySize=auto;html=1;exitX=1;exitY=0.5;exitDx=0;exitDy=0;entryX=0.005;entryY=0.655;entryDx=0;entryDy=0;entryPerimeter=0;" parent="Sg1S7YqErnmROwrVEkFE-1" source="ZN-PKVyY6lMMPNNWL_Rx-20" target="ZN-PKVyY6lMMPNNWL_Rx-28" edge="1">
          <mxGeometry relative="1" as="geometry">
            <Array as="points">
              <mxPoint x="830" y="576" />
              <mxPoint x="830" y="538" />
            </Array>
          </mxGeometry>
        </mxCell>
        <mxCell id="ZN-PKVyY6lMMPNNWL_Rx-43" style="edgeStyle=orthogonalEdgeStyle;rounded=0;orthogonalLoop=1;jettySize=auto;html=1;exitX=0;exitY=0.25;exitDx=0;exitDy=0;" parent="Sg1S7YqErnmROwrVEkFE-1" source="ZN-PKVyY6lMMPNNWL_Rx-20" edge="1">
          <mxGeometry relative="1" as="geometry">
            <mxPoint x="450" y="475" as="targetPoint" />
            <Array as="points">
              <mxPoint x="530" y="533" />
              <mxPoint x="530" y="475" />
            </Array>
          </mxGeometry>
        </mxCell>
        <mxCell id="ZN-PKVyY6lMMPNNWL_Rx-44" style="edgeStyle=orthogonalEdgeStyle;rounded=0;orthogonalLoop=1;jettySize=auto;html=1;exitX=0;exitY=0.5;exitDx=0;exitDy=0;entryX=1;entryY=0.5;entryDx=0;entryDy=0;entryPerimeter=0;" parent="Sg1S7YqErnmROwrVEkFE-1" source="ZN-PKVyY6lMMPNNWL_Rx-20" target="Nh4VloZTyhRn9MASb636-3" edge="1">
          <mxGeometry relative="1" as="geometry">
            <mxPoint x="500" y="547" as="targetPoint" />
          </mxGeometry>
        </mxCell>
        <mxCell id="Sg1S7YqErnmROwrVEkFE-37" value="NAT Gateway" style="text;strokeColor=none;align=center;fillColor=none;html=1;verticalAlign=middle;whiteSpace=wrap;rounded=0;" parent="Sg1S7YqErnmROwrVEkFE-1" vertex="1">
          <mxGeometry x="667.68" y="760" width="60" height="30" as="geometry" />
        </mxCell>
        <mxCell id="M_lbkzxIUz3xgwYN4G2F-9" value="6" style="ellipse;whiteSpace=wrap;html=1;aspect=fixed;" parent="Sg1S7YqErnmROwrVEkFE-1" vertex="1">
          <mxGeometry x="610" y="750" width="40" height="40" as="geometry" />
        </mxCell>
        <mxCell id="hbW6jGXOrDNodgh7C174-7" value="12" style="ellipse;whiteSpace=wrap;html=1;aspect=fixed;" parent="Sg1S7YqErnmROwrVEkFE-1" vertex="1">
          <mxGeometry x="905.5" y="96.5" width="40" height="40" as="geometry" />
        </mxCell>
        <mxCell id="hbW6jGXOrDNodgh7C174-11" style="edgeStyle=orthogonalEdgeStyle;rounded=0;orthogonalLoop=1;jettySize=auto;html=1;entryX=0.5;entryY=0;entryDx=0;entryDy=0;entryPerimeter=0;" parent="Sg1S7YqErnmROwrVEkFE-1" source="ZN-PKVyY6lMMPNNWL_Rx-20" target="Sg1S7YqErnmROwrVEkFE-31" edge="1">
          <mxGeometry relative="1" as="geometry" />
        </mxCell>
        <mxCell id="Sg1S7YqErnmROwrVEkFE-43" value="Public Subnet2-" style="sketch=0;outlineConnect=0;gradientColor=none;html=1;whiteSpace=wrap;fontSize=12;fontStyle=0;shape=mxgraph.aws4.group;grIcon=mxgraph.aws4.group_subnet;strokeColor=#879196;fillColor=none;verticalAlign=top;align=left;spacingLeft=30;fontColor=#879196;dashed=0;" parent="Sg1S7YqErnmROwrVEkFE-1" vertex="1">
          <mxGeometry x="850" y="424" width="280" height="180" as="geometry" />
        </mxCell>
        <mxCell id="Nh4VloZTyhRn9MASb636-5" value="" style="outlineConnect=0;dashed=0;verticalLabelPosition=bottom;verticalAlign=top;align=center;html=1;shape=mxgraph.aws3.ec2_compute_container_2;fillColor=#F58534;gradientColor=none;" parent="Sg1S7YqErnmROwrVEkFE-1" vertex="1">
          <mxGeometry x="961" y="459.5" width="80" height="43.5" as="geometry" />
        </mxCell>
        <mxCell id="Nh4VloZTyhRn9MASb636-6" value="" style="outlineConnect=0;dashed=0;verticalLabelPosition=bottom;verticalAlign=top;align=center;html=1;shape=mxgraph.aws3.ec2_compute_container_2;fillColor=#F58534;gradientColor=none;" parent="Sg1S7YqErnmROwrVEkFE-1" vertex="1">
          <mxGeometry x="961" y="527.25" width="80" height="43.5" as="geometry" />
        </mxCell>
        <mxCell id="BVOFNt_iV9Hys7kVZKEF-2" value="10.16.20.0/24" style="text;html=1;align=center;verticalAlign=middle;whiteSpace=wrap;rounded=0;" parent="Sg1S7YqErnmROwrVEkFE-1" vertex="1">
          <mxGeometry x="860" y="441.14" width="60" height="30" as="geometry" />
        </mxCell>
        <mxCell id="BVOFNt_iV9Hys7kVZKEF-3" value="customer" style="text;html=1;align=center;verticalAlign=middle;whiteSpace=wrap;rounded=0;" parent="Sg1S7YqErnmROwrVEkFE-1" vertex="1">
          <mxGeometry x="870" y="466.25" width="60" height="30" as="geometry" />
        </mxCell>
        <mxCell id="BVOFNt_iV9Hys7kVZKEF-4" value="10.16.20.17" style="text;html=1;align=center;verticalAlign=middle;whiteSpace=wrap;rounded=0;" parent="Sg1S7YqErnmROwrVEkFE-1" vertex="1">
          <mxGeometry x="1040" y="466.25" width="60" height="30" as="geometry" />
        </mxCell>
        <mxCell id="BVOFNt_iV9Hys7kVZKEF-5" value="employee" style="text;html=1;align=center;verticalAlign=middle;whiteSpace=wrap;rounded=0;" parent="Sg1S7YqErnmROwrVEkFE-1" vertex="1">
          <mxGeometry x="870" y="537.5" width="60" height="16.5" as="geometry" />
        </mxCell>
        <mxCell id="BVOFNt_iV9Hys7kVZKEF-6" value="10.16.20.80" style="text;html=1;align=center;verticalAlign=middle;whiteSpace=wrap;rounded=0;" parent="Sg1S7YqErnmROwrVEkFE-1" vertex="1">
          <mxGeometry x="1040" y="540.75" width="60" height="30" as="geometry" />
        </mxCell>
        <mxCell id="Sg1S7YqErnmROwrVEkFE-57" style="edgeStyle=orthogonalEdgeStyle;rounded=0;orthogonalLoop=1;jettySize=auto;html=1;" parent="Sg1S7YqErnmROwrVEkFE-1" source="Sg1S7YqErnmROwrVEkFE-55" target="Sg1S7YqErnmROwrVEkFE-43" edge="1">
          <mxGeometry relative="1" as="geometry" />
        </mxCell>
        <mxCell id="BVOFNt_iV9Hys7kVZKEF-9" value="10.16.30.0/24" style="text;html=1;align=center;verticalAlign=middle;whiteSpace=wrap;rounded=0;" parent="Sg1S7YqErnmROwrVEkFE-1" vertex="1">
          <mxGeometry x="240" y="645.2380952380952" width="60" height="22.857142857142854" as="geometry" />
        </mxCell>
        <mxCell id="Sg1S7YqErnmROwrVEkFE-45" value="Private Subnet2" style="sketch=0;outlineConnect=0;gradientColor=none;html=1;whiteSpace=wrap;fontSize=12;fontStyle=0;shape=mxgraph.aws4.group;grIcon=mxgraph.aws4.group_subnet;strokeColor=#879196;fillColor=none;verticalAlign=top;align=left;spacingLeft=30;fontColor=#879196;dashed=0;" parent="Sg1S7YqErnmROwrVEkFE-1" vertex="1">
          <mxGeometry x="851" y="630.06" width="280" height="150" as="geometry" />
        </mxCell>
        <mxCell id="BVOFNt_iV9Hys7kVZKEF-8" value="&lt;table aria-labelledby=&quot;heading:rds-console-ri4:&quot; data-analytics-task-interaction-id=&quot;70-1735391832978-1509&quot; data-analytics-performance-mark=&quot;69-1735391832978-5710&quot; aria-rowcount=&quot;-1&quot; role=&quot;table&quot; class=&quot;awsui_table_wih1l_kxpwe_202&quot;&gt;&lt;tbody&gt;&lt;tr aria-rowindex=&quot;3&quot; data-selection-item=&quot;item&quot; class=&quot;awsui_row_wih1l_kxpwe_361&quot;&gt;&lt;td data-awsui-analytics=&quot;{&amp;quot;component&amp;quot;:{&amp;quot;innerContext&amp;quot;:{&amp;quot;position&amp;quot;:&amp;quot;2,4&amp;quot;,&amp;quot;columnId&amp;quot;:&amp;quot;cidr-block&amp;quot;,&amp;quot;columnLabel&amp;quot;:{&amp;quot;selector&amp;quot;:&amp;quot;table thead tr th:nth-child(4)&amp;quot;,&amp;quot;root&amp;quot;:&amp;quot;component&amp;quot;},&amp;quot;item&amp;quot;:&amp;quot;1&amp;quot;}}}&quot; class=&quot;awsui_body-cell_c6tup_50xgg_152 awsui_body-cell-last-row_c6tup_50xgg_792 awsui_is-visual-refresh_c6tup_50xgg_276&quot;&gt;&lt;div class=&quot;awsui_body-cell-content_c6tup_50xgg_160&quot;&gt;10.16.40.0/24&lt;/div&gt;&lt;/td&gt;&lt;/tr&gt;&lt;/tbody&gt;&lt;/table&gt;" style="text;html=1;align=center;verticalAlign=middle;whiteSpace=wrap;rounded=0;" parent="Sg1S7YqErnmROwrVEkFE-1" vertex="1">
          <mxGeometry x="870" y="648.81" width="60" height="22.5" as="geometry" />
        </mxCell>
        <mxCell id="ZN-PKVyY6lMMPNNWL_Rx-29" value="Security Group" style="fontStyle=0;verticalAlign=top;align=center;spacingTop=-2;fillColor=none;rounded=0;whiteSpace=wrap;html=1;strokeColor=#FF0000;strokeWidth=2;dashed=1;container=1;collapsible=0;expand=0;recursiveResize=0;" parent="Sg1S7YqErnmROwrVEkFE-1" vertex="1">
          <mxGeometry x="960" y="648.81" width="160" height="111.19" as="geometry" />
        </mxCell>
        <mxCell id="Sg1S7YqErnmROwrVEkFE-55" value="" style="sketch=0;outlineConnect=0;fontColor=#232F3E;gradientColor=none;fillColor=#C925D1;strokeColor=none;dashed=0;verticalLabelPosition=bottom;verticalAlign=top;align=center;html=1;fontSize=12;fontStyle=0;aspect=fixed;pointerEvents=1;shape=mxgraph.aws4.rds_instance;" parent="ZN-PKVyY6lMMPNNWL_Rx-29" vertex="1">
          <mxGeometry x="48" y="20.25" width="58.5" height="58.5" as="geometry" />
        </mxCell>
        <mxCell id="Sg1S7YqErnmROwrVEkFE-53" value="" style="sketch=0;outlineConnect=0;fontColor=#232F3E;gradientColor=none;fillColor=#C925D1;strokeColor=none;dashed=0;verticalLabelPosition=bottom;verticalAlign=top;align=center;html=1;fontSize=12;fontStyle=0;aspect=fixed;pointerEvents=1;shape=mxgraph.aws4.rds_instance;" parent="Sg1S7YqErnmROwrVEkFE-1" vertex="1">
          <mxGeometry x="360" y="671" width="55.5" height="55.5" as="geometry" />
        </mxCell>
        <mxCell id="M_lbkzxIUz3xgwYN4G2F-14" value="9" style="ellipse;whiteSpace=wrap;html=1;aspect=fixed;" parent="Sg1S7YqErnmROwrVEkFE-1" vertex="1">
          <mxGeometry x="420" y="668.0999999999999" width="40" height="40" as="geometry" />
        </mxCell>
        <mxCell id="Sg1S7YqErnmROwrVEkFE-15" value="VPC ip:10.16.0.0/16" style="points=[[0,0],[0.25,0],[0.5,0],[0.75,0],[1,0],[1,0.25],[1,0.5],[1,0.75],[1,1],[0.75,1],[0.5,1],[0.25,1],[0,1],[0,0.75],[0,0.5],[0,0.25]];outlineConnect=0;gradientColor=none;html=1;whiteSpace=wrap;fontSize=12;fontStyle=0;container=0;pointerEvents=0;collapsible=0;recursiveResize=0;shape=mxgraph.aws4.group;grIcon=mxgraph.aws4.group_vpc2;strokeColor=#8C4FFF;fillColor=none;verticalAlign=top;align=left;spacingLeft=30;fontColor=#AAB7B8;dashed=0;" parent="1" vertex="1">
          <mxGeometry x="231" y="414" width="920" height="416" as="geometry" />
        </mxCell>
      </root>
    </mxGraphModel>
  </diagram>
</mxfile>
